<svg width="495" height="99" viewBox="0 0 495 99" fill="none" xmlns="http://www.w3.org/2000/svg">
<path d="M22 17.3H6.3C5.1 17.3 4.1 18.3 4.1 19.5V81.8C4.1 83 5.1 84 6.3 84H20.9C22.6 84 24.4 84 26.1 83.6C31 82.5 34.7 79.4 37 75.7C38.5 73.5 39.2 71.3 39.2 67.8V60C39.2 54.7 36.5 51.3 33 49.2C32.8 49.1 32.8 48.7 33 48.6C36.6 46.8 39.2 43.2 39.2 38.1V33C39.2 28.3 38 25.5 35.6 23.1C32.4 20.1 28.1 17.3 22 17.3ZM21.3 44.7H17C15.8 44.7 14.8 43.7 14.8 42.5V28.5C14.8 27.3 15.8 26.3 17 26.3H21L22.7 26.4C23.5 26.6 24.2 26.7 24.9 27.1C27 28.3 28.5 29.7 28.5 33V37.1C28.5 40.1 27.6 42.6 25.5 43.7L23.7 44.4C23.7 44.5 23.4 44.5 23.4 44.6C22.7 44.7 22 44.7 21.3 44.7ZM21.1 74.5H17C15.8 74.5 14.8 73.5 14.8 72.3V55.3C14.8 54.1 15.8 53.1 17 53.1H21L22.7 53.2C22.8 53.2 23.2 53.3 23.2 53.3C23.9 53.4 24.5 53.6 25 53.9C27.1 55 28.5 56.8 28.5 60V67.8L28.4 69.1C28.4 69.2 28.3 69.8 28.2 69.9L27.8 71C27.7 71 27.6 71.3 27.6 71.3C26.3 73.2 24.2 74.5 21.1 74.5ZM218.102 84H224.602C225.802 84 226.802 83 226.802 81.8V57.6C226.802 56.4 227.802 55.4 229.002 55.4H232.102C232.902 55.4 233.902 56.1 234.102 56.9L243.402 82.5C243.602 83.3 244.602 84 245.402 84H252.202C253.902 84 254.902 82.6 254.302 81L244.602 55.2C244.202 54.3 244.802 52.9 245.602 52.4C250.402 49.1 252.802 44.8 252.802 39.3V33.1C252.802 23.9 244.502 17.3 235.002 17.3H218.102C216.902 17.3 215.902 18.3 215.902 19.5V81.8C215.902 83 216.902 84 218.102 84ZM234.402 47H229.002C227.802 47 226.802 46 226.802 44.8V28.4C226.802 27.2 227.802 26.2 229.002 26.2H234.502C239.102 26.2 241.902 28.8 241.902 33.1V39.3C241.902 43.3 239.802 47 234.402 47Z" fill="#FEAFBE"/>
<path d="M48.8617 84H55.7617C56.7617 84 57.7617 83.2 57.9617 82.3L60.2617 71.4C60.4617 70.5 61.4617 69.7 62.4617 69.7H72.9617C73.9617 69.7 74.9617 70.5 75.1617 71.4L77.4617 82.3C77.6617 83.2 78.6617 84 79.6617 84H86.6617C88.1617 84 89.1617 82.7 88.7617 81.3L72.8617 19C72.6617 18.1 71.6617 17.3 70.7617 17.3H64.7617C63.8617 17.3 62.8617 18.1 62.6617 19L46.7617 81.3C46.3617 82.7 47.3617 84 48.8617 84ZM63.1617 58.1L65.5617 46.7C66.0617 44.4 69.4617 44.4 69.8617 46.7L72.2617 58.1C72.5617 59.6 71.6617 60.8 70.1617 60.8H65.2617C63.8617 60.8 62.8617 59.6 63.1617 58.1ZM265.387 84H271.687C272.887 84 273.887 83 273.887 81.8V19.5C273.887 18.3 272.887 17.3 271.687 17.3H265.387C264.187 17.3 263.187 18.3 263.187 19.5V81.8C263.187 83 264.187 84 265.387 84Z" fill="#B3DFD3"/>
<path d="M128.385 81.8V76.6C128.385 75.4 127.385 74.4 126.185 74.4H109.085C107.885 74.4 106.885 73.4 106.885 72.2V19.5C106.885 18.3 105.885 17.3 104.685 17.3H98.2852C97.0852 17.3 96.0852 18.3 96.0852 19.5V81.8C96.0852 83 97.0852 84 98.2852 84H126.185C127.385 84 128.385 83 128.385 81.8ZM311.823 84H318.223C319.423 84 320.423 83 320.423 81.8V19.5C320.423 18.3 319.423 17.3 318.223 17.3H311.823C310.623 17.3 309.623 18.3 309.623 19.5V46.7C309.623 49.1 306.323 49.7 305.423 47.6L293.323 18.7C293.023 18 292.023 17.3 291.223 17.3H284.723C283.523 17.3 282.523 18.3 282.523 19.5V81.8C282.523 83 283.523 84 284.723 84H291.123C292.323 84 293.323 83 293.323 81.8V54.4C293.323 52.1 296.623 51.4 297.523 53.6L309.723 82.7C310.023 83.3 311.023 84 311.823 84Z" fill="#A45A49"/>
<path d="M168.327 81.8V76.6C168.327 75.4 167.327 74.4 166.127 74.4H149.027C147.827 74.4 146.827 73.4 146.827 72.2V19.5C146.827 18.3 145.827 17.3 144.627 17.3H138.227C137.027 17.3 136.027 18.3 136.027 19.5V81.8C136.027 83 137.027 84 138.227 84H166.127C167.327 84 168.327 83 168.327 81.8ZM331.207 84H337.507C338.707 84 339.707 83 339.707 81.8V19.5C339.707 18.3 338.707 17.3 337.507 17.3H331.207C330.007 17.3 329.007 18.3 329.007 19.5V81.8C329.007 83 330.007 84 331.207 84Z" fill="#EFC764"/>
<path d="M206.368 74.4H188.968C187.768 74.4 186.768 73.4 186.768 72.2V57C186.768 55.8 187.768 54.8 188.968 54.8H203.668C204.868 54.8 205.868 53.8 205.868 52.6V48C205.868 46.8 204.868 45.8 203.668 45.8H188.968C187.768 45.8 186.768 44.8 186.768 43.6V28.3C186.768 27.1 187.768 26.1 188.968 26.1H206.368C207.568 26.1 208.568 25.1 208.568 23.9V19.5C208.568 18.3 207.568 17.3 206.368 17.3H178.268C177.068 17.3 176.068 18.3 176.068 19.5V81.8C176.068 83 177.068 84 178.268 84H206.368C207.568 84 208.568 83 208.568 81.8V76.6C208.568 75.4 207.568 74.4 206.368 74.4Z" fill="#97D4D9"/>
<path d="M26.1 83.6L25.881 82.6242L25.871 82.6266L26.1 83.6ZM37 75.7L36.1738 75.1367L36.1619 75.1541L36.1507 75.1721L37 75.7ZM33 49.2L33.5145 48.3425L33.4816 48.3227L33.4472 48.3056L33 49.2ZM33 48.6L33.4472 49.4944L33.4472 49.4944L33 48.6ZM35.6 23.1L36.3071 22.3929L36.2957 22.3815L36.2839 22.3705L35.6 23.1ZM21 26.3L21.0587 25.3017L21.0294 25.3H21V26.3ZM22.7 26.4L22.9425 25.4299L22.8519 25.4072L22.7587 25.4017L22.7 26.4ZM24.9 27.1L24.4039 27.9682L24.4039 27.9682L24.9 27.1ZM25.5 43.7L25.8624 44.632L25.9145 44.6118L25.964 44.5858L25.5 43.7ZM23.7 44.4L23.3376 43.468L22.7 43.7159V44.4H23.7ZM23.4 44.6L23.5414 45.5899L24.4 45.4673V44.6H23.4ZM21 53.1L21.0587 52.1017L21.0294 52.1H21V53.1ZM22.7 53.2L22.6413 54.1983L22.6706 54.2H22.7V53.2ZM23.2 53.3L22.9575 54.2701L23.0075 54.2827L23.0586 54.2899L23.2 53.3ZM25 53.9L24.4855 54.7575L24.5103 54.7724L24.536 54.7858L25 53.9ZM28.5 67.8L29.4971 67.8767L29.5 67.8384V67.8H28.5ZM28.4 69.1L27.4029 69.0233L27.4 69.0616V69.1H28.4ZM28.2 69.9L27.4929 69.1929L27.336 69.3498L27.2602 69.5583L28.2 69.9ZM27.8 71V72H28.5004L28.7398 71.3417L27.8 71ZM27.6 71.3L28.4253 71.8647L28.5044 71.7491L28.5487 71.6162L27.6 71.3ZM22 16.3H6.3V18.3H22V16.3ZM6.3 16.3C4.54771 16.3 3.1 17.7477 3.1 19.5H5.1C5.1 18.8523 5.65229 18.3 6.3 18.3V16.3ZM3.1 19.5V81.8H5.1V19.5H3.1ZM3.1 81.8C3.1 83.5523 4.54772 85 6.3 85V83C5.65229 83 5.1 82.4477 5.1 81.8H3.1ZM6.3 85H20.9V83H6.3V85ZM20.9 85C22.5789 85 24.4969 85.0045 26.329 84.5734L25.871 82.6266C24.3031 82.9955 22.6211 83 20.9 83V85ZM26.319 84.5757C31.5188 83.4084 35.4298 80.1202 37.8493 76.2279L36.1507 75.1721C33.9702 78.6798 30.4812 81.5916 25.881 82.6243L26.319 84.5757ZM37.8262 76.2633C39.4544 73.8754 40.2 71.4728 40.2 67.8H38.2C38.2 71.1272 37.5456 73.1246 36.1738 75.1367L37.8262 76.2633ZM40.2 67.8V60H38.2V67.8H40.2ZM40.2 60C40.2 54.283 37.2547 50.5866 33.5145 48.3425L32.4855 50.0575C35.7453 52.0134 38.2 55.117 38.2 60H40.2ZM33.4472 48.3056C33.6429 48.4034 33.7455 48.5528 33.7923 48.6523C33.8385 48.7504 33.85 48.8365 33.85 48.9C33.85 48.9635 33.8385 49.0496 33.7923 49.1477C33.7455 49.2472 33.6429 49.3966 33.4472 49.4944L32.5528 47.7056C31.9696 47.9972 31.85 48.5905 31.85 48.9C31.85 49.2095 31.9696 49.8028 32.5528 50.0944L33.4472 48.3056ZM33.4472 49.4944C37.3798 47.5281 40.2 43.5856 40.2 38.1H38.2C38.2 42.8144 35.8202 46.0719 32.5528 47.7056L33.4472 49.4944ZM40.2 38.1V33H38.2V38.1H40.2ZM40.2 33C40.2 28.0817 38.9254 25.0112 36.3071 22.3929L34.8929 23.8071C37.0746 25.9888 38.2 28.5183 38.2 33H40.2ZM36.2839 22.3705C32.9798 19.2729 28.447 16.3 22 16.3V18.3C27.753 18.3 31.8202 20.9271 34.9161 23.8295L36.2839 22.3705ZM21.3 43.7H17V45.7H21.3V43.7ZM17 43.7C16.3523 43.7 15.8 43.1477 15.8 42.5H13.8C13.8 44.2523 15.2477 45.7 17 45.7V43.7ZM15.8 42.5V28.5H13.8V42.5H15.8ZM15.8 28.5C15.8 27.8523 16.3523 27.3 17 27.3V25.3C15.2477 25.3 13.8 26.7477 13.8 28.5H15.8ZM17 27.3H21V25.3H17V27.3ZM20.9413 27.2983L22.6413 27.3983L22.7587 25.4017L21.0587 25.3017L20.9413 27.2983ZM22.4575 27.3701C23.376 27.5998 23.8611 27.6581 24.4039 27.9682L25.3961 26.2318C24.5389 25.7419 23.624 25.6002 22.9425 25.4299L22.4575 27.3701ZM24.4039 27.9682C25.4082 28.5422 26.1564 29.1033 26.6677 29.8352C27.1653 30.5474 27.5 31.5115 27.5 33H29.5C29.5 31.1885 29.0847 29.8026 28.3073 28.6898C27.5436 27.5967 26.4918 26.8578 25.3961 26.2318L24.4039 27.9682ZM27.5 33V37.1H29.5V33H27.5ZM27.5 37.1C27.5 39.9693 26.637 41.9756 25.036 42.8142L25.964 44.5858C28.5631 43.2244 29.5 40.2307 29.5 37.1H27.5ZM25.1376 42.768L23.3376 43.468L24.0624 45.332L25.8624 44.632L25.1376 42.768ZM22.7 44.4C22.7 44.2775 22.7237 44.158 22.7676 44.0477C22.8106 43.9396 22.8676 43.8541 22.9214 43.79C23.0223 43.6699 23.1264 43.608 23.1675 43.5852C23.2141 43.5593 23.2484 43.5466 23.2517 43.5454C23.2559 43.5438 23.2564 43.5438 23.2338 43.5513C23.2189 43.5563 23.1809 43.5688 23.1415 43.5837C23.1031 43.5982 23.0359 43.625 22.9612 43.6665C22.8921 43.7049 22.7645 43.7839 22.6472 43.9236C22.5851 43.9975 22.5218 44.0933 22.4743 44.2124C22.426 44.3337 22.4 44.465 22.4 44.6H24.4C24.4 44.7225 24.3763 44.842 24.3324 44.9523C24.2894 45.0604 24.2324 45.1459 24.1786 45.21C24.0777 45.3301 23.9736 45.392 23.9325 45.4148C23.8859 45.4407 23.8516 45.4534 23.8483 45.4546C23.8441 45.4562 23.8437 45.4562 23.8662 45.4487C23.8812 45.4437 23.9191 45.4312 23.9585 45.4163C23.9969 45.4018 24.0641 45.375 24.1388 45.3335C24.208 45.2951 24.3355 45.216 24.4528 45.0764C24.5149 45.0025 24.5782 44.9067 24.6257 44.7876C24.674 44.6663 24.7 44.535 24.7 44.4H22.7ZM23.2586 43.61C22.6405 43.6983 22.0115 43.7 21.3 43.7V45.7C21.9885 45.7 22.7595 45.7017 23.5414 45.5899L23.2586 43.61ZM21.1 73.5H17V75.5H21.1V73.5ZM17 73.5C16.3523 73.5 15.8 72.9477 15.8 72.3H13.8C13.8 74.0523 15.2477 75.5 17 75.5V73.5ZM15.8 72.3V55.3H13.8V72.3H15.8ZM15.8 55.3C15.8 54.6523 16.3523 54.1 17 54.1V52.1C15.2477 52.1 13.8 53.5477 13.8 55.3H15.8ZM17 54.1H21V52.1H17V54.1ZM20.9413 54.0983L22.6413 54.1983L22.7587 52.2017L21.0587 52.1017L20.9413 54.0983ZM22.7 54.2C22.6678 54.2 22.6444 54.1981 22.6355 54.1974C22.6249 54.1964 22.6186 54.1956 22.618 54.1955C22.6175 54.1954 22.6246 54.1964 22.6414 54.1995C22.6748 54.2056 22.72 54.2149 22.7706 54.2262C22.8197 54.2371 22.867 54.2482 22.9026 54.2568C22.9202 54.261 22.9344 54.2645 22.9441 54.2668C22.9489 54.268 22.9525 54.2689 22.9548 54.2695C22.956 54.2698 22.9568 54.27 22.9572 54.2701C22.9575 54.2701 22.9576 54.2702 22.9576 54.2702C22.9576 54.2702 22.9576 54.2702 22.9576 54.2702C22.9576 54.2702 22.9576 54.2702 22.9576 54.2702C22.9575 54.2702 22.9575 54.2702 22.9575 54.2702C22.9575 54.2701 22.9575 54.2701 23.2 53.3C23.4425 52.3299 23.4425 52.3299 23.4425 52.3298C23.4425 52.3298 23.4424 52.3298 23.4424 52.3298C23.4424 52.3298 23.4423 52.3298 23.4422 52.3298C23.4421 52.3298 23.442 52.3297 23.4418 52.3297C23.4415 52.3296 23.441 52.3295 23.4405 52.3293C23.4394 52.3291 23.4379 52.3287 23.4361 52.3283C23.4325 52.3274 23.4275 52.3261 23.4211 52.3246C23.4085 52.3215 23.3908 52.3171 23.3693 52.312C23.3267 52.3018 23.2678 52.2879 23.2044 52.2738C23.1425 52.26 23.069 52.2444 22.9992 52.2318C22.958 52.2243 22.8286 52.2 22.7 52.2V54.2ZM23.0586 54.2899C23.654 54.375 24.1213 54.539 24.4855 54.7575L25.5145 53.0425C24.8787 52.661 24.146 52.425 23.3414 52.31L23.0586 54.2899ZM24.536 54.7858C25.4664 55.2732 26.1901 55.8873 26.6877 56.6896C27.1845 57.4905 27.5 58.5499 27.5 60H29.5C29.5 58.2501 29.1155 56.8095 28.3873 55.6354C27.6599 54.4627 26.6337 53.6268 25.464 53.0142L24.536 54.7858ZM27.5 60V67.8H29.5V60H27.5ZM27.5029 67.7233L27.4029 69.0233L29.3971 69.1767L29.4971 67.8767L27.5029 67.7233ZM27.4 69.1C27.4 69.0702 27.4016 69.0501 27.4018 69.0482C27.4021 69.0434 27.4023 69.0428 27.4017 69.0477C27.4006 69.0576 27.3982 69.0761 27.3942 69.1027C27.3861 69.1558 27.374 69.2236 27.3597 69.2905C27.3526 69.3235 27.3455 69.3539 27.3387 69.3804C27.3317 69.4075 27.3262 69.4261 27.3227 69.4369C27.3183 69.4503 27.3208 69.4401 27.3323 69.4155C27.3384 69.4026 27.3512 69.3767 27.3719 69.3438C27.3826 69.3268 27.3971 69.3051 27.4158 69.2807C27.4344 69.2565 27.4598 69.2259 27.4929 69.1929L28.9071 70.6071C29.0434 70.4708 29.1149 70.3247 29.1423 70.2665C29.1784 70.1896 29.2051 70.1153 29.2242 70.0569C29.2626 69.9389 29.2929 69.8142 29.3153 69.7095C29.3385 69.6014 29.3576 69.4942 29.3714 69.4036C29.381 69.3407 29.4 69.212 29.4 69.1H27.4ZM27.2602 69.5583L26.8602 70.6583L28.7398 71.3417L29.1398 70.2417L27.2602 69.5583ZM27.8 70C27.2935 70 27.0084 70.3467 26.9583 70.4067C26.8627 70.5215 26.8005 70.638 26.7681 70.7028C26.731 70.777 26.7029 70.8451 26.6852 70.8907C26.6759 70.9146 26.6683 70.9351 26.6628 70.9508C26.6599 70.9587 26.6576 70.9654 26.6557 70.971C26.6547 70.9737 26.6539 70.9762 26.6531 70.9783C26.6528 70.9794 26.6525 70.9804 26.6521 70.9813C26.652 70.9818 26.6518 70.9822 26.6517 70.9826C26.6516 70.9828 26.6516 70.983 26.6515 70.9832C26.6515 70.9833 26.6514 70.9834 26.6514 70.9835C26.6514 70.9836 26.6513 70.9838 27.6 71.3C28.5487 71.6162 28.5486 71.6164 28.5486 71.6165C28.5486 71.6165 28.5485 71.6167 28.5485 71.6168C28.5484 71.6169 28.5484 71.6171 28.5483 71.6173C28.5482 71.6176 28.5481 71.618 28.548 71.6183C28.5478 71.6189 28.5476 71.6194 28.5474 71.6199C28.5471 71.6209 28.5468 71.6217 28.5466 71.6223C28.5462 71.6234 28.5461 71.6238 28.5462 71.6234C28.5465 71.6227 28.5476 71.6198 28.5492 71.6156C28.5509 71.6113 28.5527 71.6068 28.5545 71.6027C28.5563 71.5984 28.5572 71.5966 28.5569 71.5972C28.5569 71.5973 28.5534 71.6044 28.5461 71.6164C28.5396 71.627 28.5229 71.6533 28.4948 71.6871C28.4697 71.7171 28.412 71.7819 28.3174 71.8449C28.2218 71.9086 28.0433 72 27.8 72V70ZM26.7747 70.7353C25.6639 72.3588 23.8749 73.5 21.1 73.5V75.5C24.5251 75.5 26.9361 74.0412 28.4253 71.8647L26.7747 70.7353ZM57.9617 82.3L58.938 82.5169L58.9402 82.5065L57.9617 82.3ZM60.2617 71.4L59.2855 71.1831L59.2833 71.1935L60.2617 71.4ZM75.1617 71.4L76.1402 71.1935L76.1379 71.1831L75.1617 71.4ZM77.4617 82.3L76.4832 82.5065L76.4855 82.5169L77.4617 82.3ZM88.7617 81.3L87.7928 81.5473L87.7963 81.5611L87.8002 81.5747L88.7617 81.3ZM72.8617 19L71.8855 19.2169L71.8889 19.2322L71.8928 19.2473L72.8617 19ZM62.6617 19L63.6307 19.2473L63.6345 19.2322L63.6379 19.2169L62.6617 19ZM46.7617 81.3L47.7232 81.5747L47.7271 81.5611L47.7307 81.5473L46.7617 81.3ZM63.1617 58.1L62.1831 57.894L62.1811 57.9039L63.1617 58.1ZM65.5617 46.7L64.5845 46.4876L64.5832 46.494L65.5617 46.7ZM69.8617 46.7L68.8765 46.8713L68.8795 46.8887L68.8832 46.906L69.8617 46.7ZM72.2617 58.1L73.2424 57.9039L73.2403 57.894L72.2617 58.1ZM48.8617 85H55.7617V83H48.8617V85ZM55.7617 85C56.5216 85 57.2329 84.7009 57.7774 84.2755C58.3185 83.8527 58.7772 83.24 58.9379 82.5169L56.9855 82.0831C56.9462 82.26 56.8049 82.4973 56.5461 82.6995C56.2905 82.8991 56.0018 83 55.7617 83V85ZM58.9402 82.5065L61.2402 71.6065L59.2833 71.1935L56.9833 82.0935L58.9402 82.5065ZM61.2379 71.6169C61.2772 71.44 61.4185 71.2027 61.6774 71.0005C61.9329 70.8009 62.2216 70.7 62.4617 70.7V68.7C61.7018 68.7 60.9905 68.9991 60.4461 69.4245C59.9049 69.8473 59.4462 70.46 59.2855 71.1831L61.2379 71.6169ZM62.4617 70.7H72.9617V68.7H62.4617V70.7ZM72.9617 70.7C73.2018 70.7 73.4905 70.8009 73.7461 71.0005C74.0049 71.2027 74.1462 71.44 74.1855 71.6169L76.1379 71.1831C75.9772 70.46 75.5185 69.8473 74.9774 69.4245C74.4329 68.9991 73.7216 68.7 72.9617 68.7V70.7ZM74.1833 71.6065L76.4833 82.5065L78.4402 82.0935L76.1402 71.1935L74.1833 71.6065ZM76.4855 82.5169C76.6462 83.24 77.1049 83.8527 77.6461 84.2755C78.1905 84.7009 78.9018 85 79.6617 85V83C79.4216 83 79.1329 82.8991 78.8774 82.6995C78.6185 82.4973 78.4772 82.26 78.4379 82.0831L76.4855 82.5169ZM79.6617 85H86.6617V83H79.6617V85ZM86.6617 85C88.797 85 90.3137 83.0918 89.7232 81.0253L87.8002 81.5747C88.0098 82.3082 87.5264 83 86.6617 83V85ZM89.7307 81.0527L73.8307 18.7527L71.8928 19.2473L87.7928 81.5473L89.7307 81.0527ZM73.8379 18.7831C73.6777 18.0623 73.2219 17.4534 72.702 17.0341C72.1831 16.6157 71.4934 16.3 70.7617 16.3V18.3C70.93 18.3 71.1903 18.3843 71.4465 18.5909C71.7015 18.7966 71.8457 19.0376 71.8855 19.2169L73.8379 18.7831ZM70.7617 16.3H64.7617V18.3H70.7617V16.3ZM64.7617 16.3C64.03 16.3 63.3403 16.6157 62.8215 17.0341C62.3015 17.4534 61.8457 18.0623 61.6855 18.7831L63.6379 19.2169C63.6777 19.0376 63.8219 18.7966 64.077 18.5909C64.3331 18.3843 64.5934 18.3 64.7617 18.3V16.3ZM61.6928 18.7527L45.7928 81.0527L47.7307 81.5473L63.6307 19.2473L61.6928 18.7527ZM45.8002 81.0253C45.2098 83.0918 46.7264 85 48.8617 85V83C47.997 83 47.5137 82.3082 47.7232 81.5747L45.8002 81.0253ZM64.1403 58.306L66.5403 46.906L64.5832 46.494L62.1832 57.894L64.1403 58.306ZM66.5389 46.9124C66.6715 46.3025 67.1697 45.975 67.7492 45.975C68.3247 45.975 68.7757 46.2918 68.8765 46.8713L70.8469 46.5287C70.5477 44.8082 69.0987 43.975 67.7492 43.975C66.4038 43.975 64.9519 44.7975 64.5845 46.4876L66.5389 46.9124ZM68.8832 46.906L71.2832 58.306L73.2403 57.894L70.8403 46.494L68.8832 46.906ZM71.2811 58.2961C71.3831 58.8059 71.268 59.1767 71.0941 59.4028C70.9262 59.6211 70.6316 59.8 70.1617 59.8V61.8C71.1918 61.8 72.0973 61.3789 72.6793 60.6222C73.2554 59.8733 73.4403 58.8941 73.2423 57.9039L71.2811 58.2961ZM70.1617 59.8H65.2617V61.8H70.1617V59.8ZM65.2617 59.8C64.5243 59.8 63.9598 59.2086 64.1423 58.2961L62.1811 57.9039C61.7636 59.9914 63.1991 61.8 65.2617 61.8V59.8ZM129.385 81.8V76.6H127.385V81.8H129.385ZM129.385 76.6C129.385 74.8477 127.937 73.4 126.185 73.4V75.4C126.833 75.4 127.385 75.9523 127.385 76.6H129.385ZM126.185 73.4H109.085V75.4H126.185V73.4ZM109.085 73.4C108.437 73.4 107.885 72.8477 107.885 72.2H105.885C105.885 73.9523 107.333 75.4 109.085 75.4V73.4ZM107.885 72.2V19.5H105.885V72.2H107.885ZM107.885 19.5C107.885 17.7477 106.437 16.3 104.685 16.3V18.3C105.333 18.3 105.885 18.8523 105.885 19.5H107.885ZM104.685 16.3H98.2852V18.3H104.685V16.3ZM98.2852 16.3C96.5329 16.3 95.0852 17.7477 95.0852 19.5H97.0852C97.0852 18.8523 97.6374 18.3 98.2852 18.3V16.3ZM95.0852 19.5V81.8H97.0852V19.5H95.0852ZM95.0852 81.8C95.0852 83.5523 96.5329 85 98.2852 85V83C97.6374 83 97.0852 82.4477 97.0852 81.8H95.0852ZM98.2852 85H126.185V83H98.2852V85ZM126.185 85C127.937 85 129.385 83.5523 129.385 81.8H127.385C127.385 82.4477 126.833 83 126.185 83V85ZM169.327 81.8V76.6H167.327V81.8H169.327ZM169.327 76.6C169.327 74.8477 167.879 73.4 166.127 73.4V75.4C166.774 75.4 167.327 75.9523 167.327 76.6H169.327ZM166.127 73.4H149.027V75.4H166.127V73.4ZM149.027 73.4C148.379 73.4 147.827 72.8477 147.827 72.2H145.827C145.827 73.9523 147.274 75.4 149.027 75.4V73.4ZM147.827 72.2V19.5H145.827V72.2H147.827ZM147.827 19.5C147.827 17.7477 146.379 16.3 144.627 16.3V18.3C145.274 18.3 145.827 18.8523 145.827 19.5H147.827ZM144.627 16.3H138.227V18.3H144.627V16.3ZM138.227 16.3C136.474 16.3 135.027 17.7477 135.027 19.5H137.027C137.027 18.8523 137.579 18.3 138.227 18.3V16.3ZM135.027 19.5V81.8H137.027V19.5H135.027ZM135.027 81.8C135.027 83.5523 136.474 85 138.227 85V83C137.579 83 137.027 82.4477 137.027 81.8H135.027ZM138.227 85H166.127V83H138.227V85ZM166.127 85C167.879 85 169.327 83.5523 169.327 81.8H167.327C167.327 82.4477 166.774 83 166.127 83V85ZM206.368 73.4H188.968V75.4H206.368V73.4ZM188.968 73.4C188.32 73.4 187.768 72.8477 187.768 72.2H185.768C185.768 73.9523 187.216 75.4 188.968 75.4V73.4ZM187.768 72.2V57H185.768V72.2H187.768ZM187.768 57C187.768 56.3523 188.32 55.8 188.968 55.8V53.8C187.216 53.8 185.768 55.2477 185.768 57H187.768ZM188.968 55.8H203.668V53.8H188.968V55.8ZM203.668 55.8C205.42 55.8 206.868 54.3523 206.868 52.6H204.868C204.868 53.2477 204.316 53.8 203.668 53.8V55.8ZM206.868 52.6V48H204.868V52.6H206.868ZM206.868 48C206.868 46.2477 205.42 44.8 203.668 44.8V46.8C204.316 46.8 204.868 47.3523 204.868 48H206.868ZM203.668 44.8H188.968V46.8H203.668V44.8ZM188.968 44.8C188.32 44.8 187.768 44.2477 187.768 43.6H185.768C185.768 45.3523 187.216 46.8 188.968 46.8V44.8ZM187.768 43.6V28.3H185.768V43.6H187.768ZM187.768 28.3C187.768 27.6523 188.32 27.1 188.968 27.1V25.1C187.216 25.1 185.768 26.5477 185.768 28.3H187.768ZM188.968 27.1H206.368V25.1H188.968V27.1ZM206.368 27.1C208.12 27.1 209.568 25.6523 209.568 23.9H207.568C207.568 24.5477 207.016 25.1 206.368 25.1V27.1ZM209.568 23.9V19.5H207.568V23.9H209.568ZM209.568 19.5C209.568 17.7477 208.12 16.3 206.368 16.3V18.3C207.016 18.3 207.568 18.8523 207.568 19.5H209.568ZM206.368 16.3H178.268V18.3H206.368V16.3ZM178.268 16.3C176.516 16.3 175.068 17.7477 175.068 19.5H177.068C177.068 18.8523 177.62 18.3 178.268 18.3V16.3ZM175.068 19.5V81.8H177.068V19.5H175.068ZM175.068 81.8C175.068 83.5523 176.516 85 178.268 85V83C177.62 83 177.068 82.4477 177.068 81.8H175.068ZM178.268 85H206.368V83H178.268V85ZM206.368 85C208.12 85 209.568 83.5523 209.568 81.8H207.568C207.568 82.4477 207.016 83 206.368 83V85ZM209.568 81.8V76.6H207.568V81.8H209.568ZM209.568 76.6C209.568 74.8477 208.12 73.4 206.368 73.4V75.4C207.016 75.4 207.568 75.9523 207.568 76.6H209.568ZM234.102 56.9L233.132 57.1425L233.145 57.1928L233.162 57.2414L234.102 56.9ZM243.402 82.5L244.372 82.2575L244.36 82.2072L244.342 82.1586L243.402 82.5ZM254.302 81L255.239 80.6489L255.238 80.6481L254.302 81ZM244.602 55.2L245.538 54.8481L245.528 54.8206L245.516 54.7939L244.602 55.2ZM245.602 52.4L246.132 53.248L246.151 53.2364L246.169 53.224L245.602 52.4ZM218.102 85H224.602V83H218.102V85ZM224.602 85C226.355 85 227.802 83.5523 227.802 81.8H225.802C225.802 82.4477 225.25 83 224.602 83V85ZM227.802 81.8V57.6H225.802V81.8H227.802ZM227.802 57.6C227.802 56.9523 228.355 56.4 229.002 56.4V54.4C227.25 54.4 225.802 55.8477 225.802 57.6H227.802ZM229.002 56.4H232.102V54.4H229.002V56.4ZM232.102 56.4C232.236 56.4 232.484 56.4713 232.736 56.6564C232.99 56.8428 233.106 57.0385 233.132 57.1425L235.072 56.6575C234.898 55.9615 234.415 55.4072 233.919 55.0436C233.421 54.6787 232.769 54.4 232.102 54.4V56.4ZM233.162 57.2414L242.462 82.8414L244.342 82.1586L235.042 56.5585L233.162 57.2414ZM242.432 82.7425C242.606 83.4385 243.09 83.9928 243.586 84.3564C244.084 84.7213 244.736 85 245.402 85V83C245.269 83 245.021 82.9287 244.769 82.7436C244.515 82.5572 244.398 82.3615 244.372 82.2575L242.432 82.7425ZM245.402 85H252.202V83H245.402V85ZM252.202 85C253.334 85 254.334 84.5258 254.932 83.676C255.533 82.8232 255.64 81.7195 255.239 80.6489L253.366 81.3511C253.565 81.8805 253.472 82.2768 253.297 82.524C253.121 82.7742 252.771 83 252.202 83V85ZM255.238 80.6481L245.538 54.8481L243.666 55.5519L253.366 81.3519L255.238 80.6481ZM245.516 54.7939C245.463 54.6741 245.439 54.393 245.587 54.006C245.732 53.6257 245.964 53.3529 246.132 53.248L245.072 51.552C244.44 51.9471 243.973 52.6243 243.718 53.294C243.465 53.957 243.342 54.8259 243.689 55.6061L245.516 54.7939ZM246.169 53.224C251.215 49.7548 253.802 45.1587 253.802 39.3H251.802C251.802 44.4413 249.59 48.4452 245.036 51.576L246.169 53.224ZM253.802 39.3V33.1H251.802V39.3H253.802ZM253.802 33.1C253.802 23.2097 244.906 16.3 235.002 16.3V18.3C244.099 18.3 251.802 24.5903 251.802 33.1H253.802ZM235.002 16.3H218.102V18.3H235.002V16.3ZM218.102 16.3C216.35 16.3 214.902 17.7477 214.902 19.5H216.902C216.902 18.8523 217.455 18.3 218.102 18.3V16.3ZM214.902 19.5V81.8H216.902V19.5H214.902ZM214.902 81.8C214.902 83.5523 216.35 85 218.102 85V83C217.455 83 216.902 82.4477 216.902 81.8H214.902ZM234.402 46H229.002V48H234.402V46ZM229.002 46C228.355 46 227.802 45.4477 227.802 44.8H225.802C225.802 46.5523 227.25 48 229.002 48V46ZM227.802 44.8V28.4H225.802V44.8H227.802ZM227.802 28.4C227.802 27.7523 228.355 27.2 229.002 27.2V25.2C227.25 25.2 225.802 26.6477 225.802 28.4H227.802ZM229.002 27.2H234.502V25.2H229.002V27.2ZM234.502 27.2C236.618 27.2 238.201 27.796 239.246 28.7693C240.282 29.7343 240.902 31.1745 240.902 33.1H242.902C242.902 30.7254 242.123 28.7157 240.609 27.3057C239.104 25.904 236.986 25.2 234.502 25.2V27.2ZM240.902 33.1V39.3H242.902V33.1H240.902ZM240.902 39.3C240.902 41.1401 240.418 42.8117 239.412 44.0059C238.431 45.1716 236.854 46 234.402 46V48C237.35 48 239.524 46.9784 240.942 45.2941C242.337 43.6383 242.902 41.4599 242.902 39.3H240.902ZM265.387 85H271.687V83H265.387V85ZM271.687 85C273.439 85 274.887 83.5523 274.887 81.8H272.887C272.887 82.4477 272.334 83 271.687 83V85ZM274.887 81.8V19.5H272.887V81.8H274.887ZM274.887 19.5C274.887 17.7477 273.439 16.3 271.687 16.3V18.3C272.334 18.3 272.887 18.8523 272.887 19.5H274.887ZM271.687 16.3H265.387V18.3H271.687V16.3ZM265.387 16.3C263.634 16.3 262.187 17.7477 262.187 19.5H264.187C264.187 18.8523 264.739 18.3 265.387 18.3V16.3ZM262.187 19.5V81.8H264.187V19.5H262.187ZM262.187 81.8C262.187 83.5523 263.634 85 265.387 85V83C264.739 83 264.187 82.4477 264.187 81.8H262.187ZM305.423 47.6L304.5 47.9862L304.504 47.9939L305.423 47.6ZM293.323 18.7L294.245 18.3138L294.242 18.3061L293.323 18.7ZM297.523 53.6L296.597 53.9786L296.6 53.9866L297.523 53.6ZM309.723 82.7L308.8 83.0866L308.813 83.1174L308.828 83.1472L309.723 82.7ZM311.823 85H318.223V83H311.823V85ZM318.223 85C319.975 85 321.423 83.5523 321.423 81.8H319.423C319.423 82.4477 318.87 83 318.223 83V85ZM321.423 81.8V19.5H319.423V81.8H321.423ZM321.423 19.5C321.423 17.7477 319.975 16.3 318.223 16.3V18.3C318.87 18.3 319.423 18.8523 319.423 19.5H321.423ZM318.223 16.3H311.823V18.3H318.223V16.3ZM311.823 16.3C310.07 16.3 308.623 17.7477 308.623 19.5H310.623C310.623 18.8523 311.175 18.3 311.823 18.3V16.3ZM308.623 19.5V46.7H310.623V19.5H308.623ZM308.623 46.7C308.623 47.9791 306.827 48.3374 306.342 47.2061L304.504 47.9939C305.819 51.0626 310.623 50.2209 310.623 46.7H308.623ZM306.345 47.2138L294.245 18.3138L292.4 19.0862L304.5 47.9862L306.345 47.2138ZM294.242 18.3061C293.994 17.7267 293.511 17.2414 293.021 16.9096C292.531 16.5776 291.887 16.3 291.223 16.3V18.3C291.358 18.3 291.614 18.3723 291.899 18.5654C292.184 18.7585 292.352 18.9733 292.404 19.0939L294.242 18.3061ZM291.223 16.3H284.723V18.3H291.223V16.3ZM284.723 16.3C282.97 16.3 281.523 17.7477 281.523 19.5H283.523C283.523 18.8523 284.075 18.3 284.723 18.3V16.3ZM281.523 19.5V81.8H283.523V19.5H281.523ZM281.523 81.8C281.523 83.5523 282.97 85 284.723 85V83C284.075 83 283.523 82.4477 283.523 81.8H281.523ZM284.723 85H291.123V83H284.723V85ZM291.123 85C292.875 85 294.323 83.5523 294.323 81.8H292.323C292.323 82.4477 291.77 83 291.123 83V85ZM294.323 81.8V54.4H292.323V81.8H294.323ZM294.323 54.4C294.323 53.1743 296.121 52.8144 296.597 53.9786L298.448 53.2214C297.124 49.9856 292.323 51.0257 292.323 54.4H294.323ZM296.6 53.9866L308.8 83.0866L310.645 82.3134L298.445 53.2134L296.6 53.9866ZM308.828 83.1472C309.086 83.663 309.568 84.1086 310.043 84.4153C310.522 84.7241 311.161 85 311.823 85V83C311.684 83 311.424 82.9259 311.127 82.7347C310.828 82.5414 310.659 82.337 310.617 82.2528L308.828 83.1472ZM331.207 85H337.507V83H331.207V85ZM337.507 85C339.259 85 340.707 83.5523 340.707 81.8H338.707C338.707 82.4477 338.155 83 337.507 83V85ZM340.707 81.8V19.5H338.707V81.8H340.707ZM340.707 19.5C340.707 17.7477 339.259 16.3 337.507 16.3V18.3C338.155 18.3 338.707 18.8523 338.707 19.5H340.707ZM337.507 16.3H331.207V18.3H337.507V16.3ZM331.207 16.3C329.455 16.3 328.007 17.7477 328.007 19.5H330.007C330.007 18.8523 330.559 18.3 331.207 18.3V16.3ZM328.007 19.5V81.8H330.007V19.5H328.007ZM328.007 81.8C328.007 83.5523 329.455 85 331.207 85V83C330.559 83 330.007 82.4477 330.007 81.8H328.007Z" fill="black"/>
</svg>
